<svg width="180" height="180" viewBox="0 0 180 180" fill="none" xmlns="http://www.w3.org/2000/svg">
<path d="M123.996 142.264C123.799 142.264 123.158 142.264 122.075 142.264C119.712 142.167 115.33 142.071 108.929 141.975C102.528 141.782 94.2068 141.734 83.9654 141.83L44.8216 142.264C42.8521 142.264 41.7197 141.686 41.4242 140.53C41.2273 139.375 41.6212 137.979 42.6059 136.342C43.5907 134.609 45.3632 131.721 47.9236 127.677C50.5824 123.633 53.7336 118.867 57.3772 113.379C61.0208 107.795 64.8613 101.922 68.8988 95.76C73.0347 89.598 77.1214 83.5324 81.1589 77.563C85.1964 71.4973 88.9384 65.913 92.385 60.8101C95.9301 55.7073 98.8352 51.4709 101.1 48.1011C103.463 44.7313 104.941 42.7094 105.531 42.0354H75.3981C70.4744 42.0354 66.3384 43.2389 62.9903 45.6459C59.6421 47.9567 56.934 50.797 54.8661 54.1668C52.7981 57.5366 51.2225 60.6657 50.1393 63.5541C50.0408 63.9393 49.7946 64.3244 49.4007 64.7095C49.1053 64.9984 48.5637 65.0946 47.7759 64.9984C47.0865 64.9021 46.6434 64.6132 46.4465 64.1318C46.2495 63.6504 46.151 63.2172 46.151 62.832C46.151 62.5432 46.2003 61.4841 46.2987 59.6548C46.3972 57.7292 46.4957 55.5147 46.5942 53.0114C46.6926 50.4118 46.7911 48.0048 46.8896 45.7904C46.9881 43.5759 47.0865 41.9873 47.185 41.0245C47.2835 38.5212 48.6129 37.2695 51.1733 37.2695C51.6656 37.2695 52.995 37.3177 55.1615 37.414C57.3279 37.5102 60.7746 37.6065 65.5014 37.7028C70.2282 37.7028 76.7275 37.7028 84.9994 37.7028H123.257C124.931 37.7028 126.014 38.3286 126.507 39.5803C126.999 40.8319 126.753 42.1798 125.768 43.6241C125.473 44.1055 124.389 45.7422 122.518 48.5344C120.647 51.2302 118.235 54.7926 115.28 59.2215C112.425 63.5541 109.224 68.4163 105.679 73.808C102.134 79.1035 98.4413 84.5915 94.6007 90.272C90.8587 95.8563 87.1659 101.344 83.5223 106.736C79.8787 112.128 76.5306 117.038 73.4778 121.467C70.5236 125.896 68.0617 129.554 66.0922 132.443C64.1227 135.331 62.8918 137.064 62.3994 137.642H101.839C105.876 137.642 109.224 136.727 111.883 134.898C114.542 133.069 116.708 130.806 118.382 128.11C120.057 125.414 121.386 122.767 122.371 120.167C123.355 117.471 124.143 115.305 124.734 113.668C125.029 112.802 125.916 112.368 127.393 112.368C128.082 112.368 128.476 112.609 128.575 113.091C128.772 113.476 128.87 113.909 128.87 114.39C128.87 114.679 128.821 115.931 128.722 118.145C128.624 120.36 128.525 122.911 128.427 125.8C128.328 128.688 128.181 131.384 127.984 133.887C127.885 136.294 127.836 137.883 127.836 138.653C127.738 141.06 126.457 142.264 123.996 142.264Z" fill="white"/>
<circle cx="128.499" cy="93.265" r="10.4994" fill="white"/>
</svg>
