<svg width="175" height="188" viewBox="0 0 175 188" fill="none" xmlns="http://www.w3.org/2000/svg">
<path d="M147.572 187.535C147.221 187.535 146.077 187.535 144.142 187.535C139.921 187.363 132.094 187.191 120.661 187.019C109.228 186.675 94.3654 186.589 76.0727 186.761L6.15618 187.535C2.63836 187.535 0.615617 186.503 0.0879454 184.439C-0.263836 182.376 0.439727 179.882 2.19863 176.958C3.95754 173.863 7.12357 168.704 11.6967 161.481C16.4458 154.258 22.0743 145.746 28.5822 135.943C35.0902 125.969 41.9499 115.479 49.1615 104.473C56.5489 93.4664 63.8483 82.6322 71.0599 71.97C78.2714 61.1358 84.9552 51.1615 91.1114 42.047C97.4435 32.9325 102.632 25.3658 106.678 19.3468C110.899 13.3278 113.537 9.71638 114.593 8.51259H60.7702C51.9757 8.51259 44.5883 10.6622 38.608 14.9615C32.6277 19.0888 27.7907 24.162 24.097 30.181C20.4033 36.2 17.5891 41.789 15.6543 46.9482C15.4784 47.636 15.0387 48.3239 14.3351 49.0118C13.8074 49.5277 12.84 49.6997 11.4329 49.5277C10.2017 49.3558 9.41015 48.8399 9.05837 47.98C8.70659 47.1201 8.5307 46.3463 8.5307 45.6584C8.5307 45.1425 8.61864 43.2508 8.79454 39.9833C8.97043 36.5439 9.14632 32.5886 9.32221 28.1173C9.4981 23.4741 9.67399 19.1748 9.84988 15.2195C10.0258 11.2641 10.2017 8.4266 10.3776 6.70689C10.5534 2.23563 12.928 0 17.5011 0C18.3806 0 20.7551 0.0859897 24.6247 0.257969C28.4943 0.429938 34.6505 0.601907 43.0932 0.773876C51.536 0.773876 63.1448 0.773876 77.9196 0.773876H146.253C149.243 0.773876 151.178 1.89169 152.058 4.12732C152.937 6.36295 152.497 8.77054 150.738 11.3501C150.211 12.21 148.276 15.1335 144.934 20.1206C141.592 24.9358 137.283 31.2988 132.006 39.2095C126.905 46.9482 121.189 55.6327 114.857 65.2631C108.525 74.7215 101.929 84.5239 95.0689 94.6702C88.3851 104.645 81.7892 114.447 75.2812 124.077C68.7733 133.708 62.793 142.478 57.3404 150.389C52.0637 158.3 47.6664 164.834 44.1486 169.994C40.6308 175.153 38.4321 178.248 37.5527 179.28H107.997C115.208 179.28 121.189 177.646 125.938 174.379C130.687 171.111 134.556 167.07 137.547 162.255C140.537 157.44 142.911 152.711 144.67 148.067C146.429 143.252 147.836 139.383 148.891 136.459C149.419 134.911 151.002 134.138 153.641 134.138C154.872 134.138 155.575 134.568 155.751 135.427C156.103 136.115 156.279 136.889 156.279 137.749C156.279 138.265 156.191 140.501 156.015 144.456C155.839 148.411 155.663 152.968 155.487 158.128C155.312 163.287 155.048 168.102 154.696 172.573C154.52 176.872 154.432 179.71 154.432 181.086C154.256 185.385 151.97 187.535 147.572 187.535Z" fill="white"/>
<circle cx="155.621" cy="100.015" r="18.7535" fill="white"/>
</svg>
